<?xml version="1.0" encoding="UTF-8" standalone="no"?>
<svg
   width="128"
   height="128"
   viewBox="0 0 128 128"
   fill="none"
   version="1.1"
   id="svg5"
   xmlns="http://www.w3.org/2000/svg"
   xmlns:svg="http://www.w3.org/2000/svg">
  <path
     d="M 64.748,8 C 33.8217,8 8.74805,33.0736 8.74805,64 c 0,30.9264 25.07365,56 55.99995,56 30.9264,0 56,-25.0736 56,-56 0,-30.9264 -25.0736,-56 -56,-56 z"
     stroke="url(#paint0_linear_1013_854)"
     stroke-width="12"
     id="path1"
     style="stroke:url(#paint0_linear_1013_854)" />
  <path
     d="m 114.643,90.9279 -3.081,-5.1485 -1.523,0.9112 -0.782,1.5927 z m -0.065,0.1299 -5.386,-2.6446 -0.133,0.2711 -0.105,0.2831 z m 0.066,-0.1304 3.081,5.1485 2.919,-1.7468 v -3.4017 z m 0,-0.0014 -5.38,-2.6569 -0.62,1.256 v 1.4009 z m 0.968,-1.9331 5.357,2.7027 v 0 z m 4.171,-11.4758 -5.915,-1.0058 -0.066,0.3888 -0.015,0.394 z M 97.1401,40.3526 100.287,35.244 v -3e-4 z m -0.084,-1.6265 -3.5652,-4.8258 -7e-4,5e-4 z m 1.6907,-1.249 3.5652,4.8259 0.001,-6e-4 z m -0.2221,-1.664 -2.2344,5.5684 0.0021,8e-4 z m -51.7504,4.5856 -4.9773,-3.3506 -10e-4,0.0015 z m -0.5809,0.4084 -1.5046,-5.8083 -0.0021,5e-4 z m -17.134,27.1883 -5.9972,0.1858 10e-5,3e-4 z m 1.9049,0.529 -4.7766,-3.631 -10e-5,1e-4 z m 14.5961,-9.157 5.9755,-0.5419 -0.6353,-7.0053 -6.8174,1.7319 z m 0.5766,0.8227 2.6469,-5.3846 -2e-4,-1e-4 z m -6.3702,53.6439 -2.6135,-5.401 -10.1804,4.926 9.7873,5.667 z m 10.7485,3.491 1.6807,-5.76 -0.6049,-0.176 -0.6283,-0.047 z m 38.5273,-4.237 4.4088,4.07 -7.5233,-9.198 z m -0.2607,0.282 -4.4089,-4.069 -14.1652,15.345 20.1504,-5.486 z m 0.9031,-0.246 1.5763,5.79 1.2697,-0.346 1.0085,-0.845 z m 0.0011,-10e-4 3.8546,4.599 5.2982,-4.442 -5.1431,-4.62 z m -0.2851,-0.256 -3.1736,-5.092 -6.7735,4.222 5.9375,5.334 z m 0.3212,-0.202 -1.8085,-5.721 -0.753,0.238 -0.6659,0.425 z M 109.257,88.2833 c 0.002,-0.0052 0.003,-0.0065 -0.01,0.019 -0.009,0.0178 -0.031,0.0624 -0.055,0.1109 l 10.772,5.2892 c -0.003,0.0053 -0.004,0.0066 0.009,-0.019 0.009,-0.0177 0.032,-0.0623 0.055,-0.1108 z m 2.306,-2.5045 -0.001,6e-4 6.162,10.2971 10e-4,-6e-4 z m -2.919,5.1472 v 0.0014 h 12 V 90.926 Z m 1.611,-4.6359 c -0.324,0.6419 -0.661,1.3101 -0.991,1.979 l 10.759,5.3138 c 0.304,-0.6152 0.618,-1.2374 0.946,-1.8873 z m 3.532,-8.996 c -0.027,0.7307 -0.283,1.8597 -0.953,3.5341 -0.66,1.6506 -1.545,3.4141 -2.579,5.4619 l 10.714,5.4055 c 0.981,-1.9452 2.117,-4.1873 3.007,-6.4103 0.879,-2.1992 1.701,-4.8115 1.803,-7.5453 z M 93.9933,45.4611 c 8.9187,5.4937 14.3067,10.3758 17.2627,15.171 2.801,4.5446 3.701,9.4714 2.612,15.8792 l 11.83,2.0116 C 127.202,69.6785 126.02,61.7142 121.471,54.3351 117.077,47.2066 109.847,41.1326 100.287,35.244 Z M 93.4902,33.9008 c -4.1154,3.0413 -3.5545,9.0613 0.5035,11.5606 l 6.2933,-10.2177 c 2.878,1.7726 3.336,6.0899 0.335,8.3078 z m 1.6913,-1.2495 -1.6906,1.249 7.1301,9.6517 1.691,-1.249 z m 1.1109,8.731 C 92.724,39.952 91.9239,35.0588 95.1807,32.6519 l 7.1323,9.6505 c 4.464,-3.2988 3.407,-10.0694 -1.556,-12.0586 z m -44.5408,2.367 c 4.1095,-6.1046 7.9536,-8.9113 13.5412,-9.5845 6.2902,-0.7579 15.6622,1.0631 30.9975,7.2167 L 100.759,30.2447 C 85.1524,23.9822 73.3542,21.1067 63.8573,22.251 53.6577,23.4799 47.0976,29.1741 41.797,37.0481 Z m -4.0535,2.866 c 1.6132,-0.4179 3.0776,-1.4154 4.0545,-2.8674 L 41.796,37.0496 c 0.7065,-1.0501 1.7485,-1.7544 2.8928,-2.0508 z M 35.0565,67.8095 c -0.1765,-5.6957 0.3646,-10.2761 2.11,-13.7166 1.5694,-3.0934 4.4309,-5.8948 10.5337,-7.4781 L 44.6867,34.9993 c -9.021,2.3404 -14.9122,7.1409 -18.2218,13.6645 -3.1335,6.1766 -3.5975,13.2285 -3.4027,19.5174 z m -8.8689,-2.916 c 1.4161,-1.8629 3.6114,-2.2088 5.1817,-1.7852 1.6331,0.4405 3.6045,2.0353 3.6872,4.701 l -11.9942,0.3722 c 0.1122,3.6177 2.7479,5.8562 5.1819,6.5127 2.3714,0.6397 5.5044,0.0822 7.4968,-2.539 z M 44.0832,53.5521 c -7.9738,2.0256 -13.7833,5.9315 -17.8955,11.3413 l 9.5533,7.2619 c 2.338,-3.0758 5.7339,-5.5595 11.2967,-6.9726 z m -4.4982,6.3572 c 0.2062,2.2741 1.5482,4.5069 3.9053,5.6655 l 5.2934,-10.7694 c 1.6343,0.8033 2.6046,2.3929 2.7522,4.0201 z m 3.9051,5.6654 c 9.4759,4.6581 13.5737,12.387 13.031,19.8373 -0.5491,7.5389 -6.0051,16.555 -19.3678,23.021 l 5.2269,10.802 C 58.4768,111.446 67.5475,99.2155 68.4894,86.2838 69.4378,73.2634 61.9911,61.2978 48.7839,54.8055 Z m -6.7299,53.4513 c 4.362,2.526 8.8413,3.948 13.3077,4.282 l 0.8949,-11.966 c -2.4945,-0.187 -5.2395,-0.992 -8.1895,-2.7 z M 85.9281,107.96 c -9.059,5.501 -22.1635,6.981 -33.7321,3.605 l -3.3614,11.52 c 14.405,4.203 31.0508,2.584 43.3225,-4.869 z m 7.2626,9.48 0.2607,-0.282 -8.8176,-8.14 -0.2608,0.283 z m -5.0821,-10.105 -0.9031,0.246 3.1527,11.579 0.9031,-0.246 z m -2.277,1.19 -0.0011,10e-4 7.709,9.197 0.0012,-0.001 z m -0.4402,8.806 0.285,0.256 8.0194,-8.927 -0.2851,-0.256 z m 1.1034,-9.724 c -0.089,0.056 -0.1781,0.113 -0.2674,0.168 l 6.3473,10.184 c 0.1257,-0.078 0.2507,-0.157 0.3749,-0.236 z M 108.954,88.9674 C 105.057,99.4526 95.4794,104.552 87.9137,106.944 l 3.617,11.442 c 8.9003,-2.814 22.8543,-9.587 28.6713,-25.2378 z"
     fill="url(#paint1_linear_1013_854)"
     id="path2"
     style="fill:url(#paint1_linear_1013_854)" />
  <defs
     id="defs5">
    <linearGradient
       id="paint0_linear_1013_854"
       x1="47.0028"
       y1="116.69"
       x2="47.082901"
       y2="48.190701"
       gradientUnits="userSpaceOnUse">
      <stop
         stop-color="#124DA4"
         id="stop2"
         offset="0"
         style="stop-color:#a42312;stop-opacity:1;" />
      <stop
         offset="1"
         stop-color="#2896FF"
         id="stop3"
         style="stop-color:#ff2828;stop-opacity:1;" />
    </linearGradient>
    <linearGradient
       id="paint1_linear_1013_854"
       x1="60.2061"
       y1="116.661"
       x2="60.2714"
       y2="60.787102"
       gradientUnits="userSpaceOnUse">
      <stop
         stop-color="#124DA4"
         id="stop4"
         offset="0"
         style="stop-color:#a42312;stop-opacity:1;" />
      <stop
         offset="1"
         stop-color="#2896FF"
         id="stop5"
         style="stop-color:#ff2828;stop-opacity:1;" />
    </linearGradient>
  </defs>
</svg>
